PathFileType	4	(X/Y/Z)	/Users/visionmauri/4_1_1_f_Sports2D/4_1_1_f_Sports2D_m_person00.trc
DataRate	CameraRate	NumFrames	NumMarkers	Units	OrigDataRate	OrigDataStartFrame	OrigNumFrames
30.0	30.0	10	22	m	30.0	177	355
Frame#	Time	Hip			RHip			RKnee			RAnkle			RBigToe			RSmallToe			RHeel			LHip			LKnee			LAnkle			LBigToe			LSmallToe			LHeel			Neck			Head			Nose			RShoulder			RElbow			RWrist			LShoulder			LElbow			LWrist			
		X1	Y1	Z1	X2	Y2	Z2	X3	Y3	Z3	X4	Y4	Z4	X5	Y5	Z5	X6	Y6	Z6	X7	Y7	Z7	X8	Y8	Z8	X9	Y9	Z9	X10	Y10	Z10	X11	Y11	Z11	X12	Y12	Z12	X13	Y13	Z13	X14	Y14	Z14	X15	Y15	Z15	X16	Y16	Z16	X17	Y17	Z17	X18	Y18	Z18	X19	Y19	Z19	X20	Y20	Z20	X21	Y21	Z21	X22	Y22	Z22
177	5.916666666666667	1.3251412996380647	0.9156306774464124	0.0301	1.2489708309671674	0.9532517082572469	0.0301	1.1749211352962672	0.6732133348508602	0.129	0.9863599302326604	0.33180760910418605	0.023	1.0605195154505447	0.2281545152464491	0.2179	1.0290573601845032	0.23363159186984062	0.1804	0.9467145782334067	0.28280777897603104	-0.0119	1.404909353791057	0.8898117665461543	0.0301	1.3645029591239202	0.5771488974225062	0.129	1.1731916897556245	0.3143905513247601	0.023	1.2504670914466498	0.21349947794123278	0.2179	1.256621441431171	0.22939427943953586	0.1804	1.1318551191173893	0.27318054849935264	-0.0119	1.48835458646974	1.3277686742755075	0.0008	1.6046693702923416	1.512247125276722	0.0655	1.5529262515673146	1.3598881749483058	0.1076	1.3379345971280105	1.328370794920375	-0.01275	1.1456647280177443	1.188799616140971	0.0702	1.0501997254829532	1.0138558418644983	0.1076	1.6101070068381806	1.266576510486269	-0.01275	1.593379576057713	1.039144220093476	0.0702	1.6134321138348657	0.8643766393977752	0.1076
178	5.950094161958569	1.3264877916659308	0.9142451136647127	0.0301	1.2487174357608788	0.9501685374781267	0.0301	1.1759208938079384	0.672028168506826	0.129	0.9890262674369901	0.3312688600252351	0.023	1.0594405817246628	0.23347163900760454	0.2179	1.023409996686932	0.2368937692052984	0.1804	0.9499485093381054	0.27960285034968435	-0.0119	1.4074235909993096	0.8885321936829161	0.0301	1.3752123799992502	0.5750847081436148	0.129	1.1794595155721428	0.31638978505527593	0.023	1.2542660239960597	0.2096167661586946	0.2179	1.263161212892991	0.2265479365234899	0.1804	1.1377397272291707	0.27648211533526085	-0.0119	1.4883139718534515	1.3291613173682375	0.0008	1.6054742758344565	1.5117964219648066	0.0655	1.5531047505975384	1.3624783677838999	0.1076	1.338156597655673	1.3304340400275003	-0.01275	1.1452457519818904	1.1911657641478826	0.0702	1.050627350758262	1.01416657984569	0.1076	1.611866450930064	1.2662798619669702	-0.01275	1.5938610180369495	1.0391294206529818	0.0702	1.6143287016183703	0.8637316089509708	0.1076
179	5.9835216572504715	1.3289899906816331	0.910582236412493	0.0301	1.2487304913537773	0.9456929831432018	0.0301	1.1771297997880867	0.6702362649884709	0.129	0.9934002882258477	0.3314577732132565	0.023	1.0568934148005944	0.23804007886544218	0.2179	1.0121114562124518	0.23755086763723152	0.1804	0.9513514159380785	0.27756296648203094	-0.0119	1.411260626780865	0.8855038411321713	0.0301	1.3844123956447354	0.5733438671882961	0.129	1.1856226790560456	0.31640358922482575	0.023	1.2588465731928165	0.20402989158155652	0.2179	1.2698040204908752	0.22156799806640545	0.1804	1.1426580109195952	0.2783760654674307	-0.0119	1.4896030995396696	1.329680666904968	0.0008	1.6068006032450783	1.5114077837449982	0.0655	1.5547426619345799	1.3631248729017198	0.1076	1.3391758672100826	1.3321696664700862	-0.01275	1.1443713520715906	1.1926166454042735	0.0702	1.051339696568801	1.014549453151543	0.1076	1.613813657489595	1.264603825909372	-0.01275	1.5941103707714257	1.0397288934607387	0.0702	1.6152324345957594	0.8619728385292956	0.1076
180	6.016949152542373	1.330961076858725	0.9057694996132961	0.0301	1.2480576878124519	0.9397378908034204	0.0301	1.178049313133391	0.6681362973045942	0.129	0.996845224530268	0.3318640071519908	0.023	1.0516019770563494	0.23861006935430024	0.2179	1.0022898697719194	0.2375053877043331	0.1804	0.9537595784154017	0.27698385160092515	-0.0119	1.414723932401054	0.8804276767018513	0.0301	1.3908407252166886	0.5707720708061021	0.129	1.192476726858728	0.31427031940505856	0.023	1.2655668985474031	0.19702715827392928	0.2179	1.2774483566520878	0.2153362686352912	0.1804	1.1489104182498986	0.27756048494319524	-0.0119	1.4915129947183379	1.3290585042034668	0.0008	1.6086161974756932	1.5110441534545946	0.0655	1.557306833214873	1.3617588358790627	0.1076	1.341005199402721	1.3328153492544688	-0.01275	1.1444422743871392	1.193489094473505	0.0702	1.0513463280043718	1.0141981539384264	0.1076	1.6161988888209184	1.2624960314796656	-0.01275	1.5945658759365484	1.0407761310011956	0.0702	1.6159217606831688	0.8608114887630717	0.1076
181	6.050376647834275	1.332484287034018	0.9018098257427724	0.0301	1.2477654978140194	0.9336382150760848	0.0301	1.1778001816276822	0.6633031534064672	0.129	0.9961488426824622	0.3313294236572394	0.023	1.0453714536850238	0.2320831228849895	0.2179	1.0019711632877881	0.23575625157455227	0.1804	0.9573391871855568	0.2775188474017073	-0.0119	1.4173890204877004	0.8745070512520052	0.0301	1.3929960745644954	0.5676519048092229	0.129	1.2000888592343306	0.3095101670486959	0.023	1.2749966786381752	0.1890438648530412	0.2179	1.287232100351926	0.20792672757688666	0.1804	1.1574519975642263	0.2726730801420062	-0.0119	1.494432449812582	1.3274335165600752	0.0008	1.6109067245181443	1.5103866811419722	0.0655	1.5589446848841049	1.3596265926522475	0.1076	1.3443651331272903	1.3327324311689372	-0.01275	1.1465603493042722	1.1943934889490195	0.0702	1.0508722491008105	1.013497436621375	0.1076	1.6195388785259357	1.2605298075356532	-0.01275	1.5956159283078917	1.0411952265437834	0.0702	1.616173414619327	0.8622669359997553	0.1076
182	6.083804143126177	1.3351626882144056	0.8995192724676467	0.0301	1.2500452906152049	0.9301920603520641	0.0301	1.1772735359891007	0.658149432139219	0.129	0.9916693029416431	0.3287879559886054	0.023	1.04163832904499	0.22083342593439345	0.2179	1.0076262654087123	0.2292679993517848	0.1804	0.9592183669584624	0.2771682158616845	-0.0119	1.42044008481382	0.8702354224664479	0.0301	1.3915589787993365	0.5644168150229514	0.129	1.2079546975055726	0.30167314018786157	0.023	1.2842193084508875	0.1802927446431853	0.2179	1.29760245223927	0.1982545586876612	0.1804	1.1663895662110708	0.2641362875468741	-0.0119	1.4983092579021597	1.3254564168262997	0.0008	1.6145264881093315	1.5092129981780504	0.0655	1.5614446487325448	1.3564764854428815	0.1076	1.3479576144786334	1.3324228309340442	-0.01275	1.1495863971987443	1.1948578048667817	0.0702	1.0509812142110888	1.0128619418574454	0.1076	1.623028012985407	1.2587933564837115	-0.01275	1.5974389806835523	1.0404460290876367	0.0702	1.6163612206106819	0.8651376668320199	0.1076
183	6.11723163841808	1.3396934413228325	0.8980684215794653	0.0301	1.2551347952637373	0.930042549672308	0.0301	1.1768072485982601	0.656566703419999	0.129	0.9875423922147472	0.3248974456257856	0.023	1.040890763364325	0.2098752768660982	0.2179	1.0103231660047607	0.2191479990940962	0.1804	0.9591510650865572	0.2744551094589902	-0.0119	1.4247171582811715	0.8685720896283876	0.0301	1.3885722327491963	0.5605259917833654	0.129	1.2160538479717922	0.2906734338750058	0.023	1.29091091172317	0.17054783232974274	0.2179	1.3062745833450176	0.18590744331899492	0.1804	1.1738649731471926	0.25264503232673124	-0.0119	1.5023035897500492	1.3240460723016803	0.0008	1.6206572750073456	1.5072433251164845	0.0655	1.5680355777754744	1.3517955576481304	0.1076	1.3503864030045034	1.3318388061583692	-0.01275	1.152091653047342	1.1939983963526963	0.0702	1.0519424486837727	1.0121924181297473	0.1076	1.6261072159899275	1.2572311973190688	-0.01275	1.6000655473300702	1.0390113131641132	0.0702	1.6171229593450278	0.8662055750911097	0.1076
184	6.150659133709982	1.3448043824083455	0.8961690512450253	0.0301	1.2603790795841827	0.9298887503665713	0.0301	1.175832118884292	0.6559348572304906	0.129	0.9879010786699632	0.3219949959643754	0.023	1.040231831139273	0.20279141608471596	0.2179	1.0071624046379901	0.2111554810399716	0.1804	0.9603952587706183	0.27039536310122964	-0.0119	1.4299374773202553	0.8678350245661453	0.0301	1.384935708550237	0.5557479336638353	0.129	1.2253042183614595	0.2769462841939214	0.023	1.2949920595779996	0.15911754623568689	0.2179	1.3126898675208805	0.17157073655960253	0.1804	1.180853939412982	0.2380222983002025	-0.0119	1.506356915656812	1.3231007562896226	0.0008	1.6280981411835425	1.5047952241035898	0.0655	1.5759786693472015	1.3465097032264903	0.1076	1.3532881173690476	1.3306474818212906	-0.01275	1.15441414545182	1.1920387969566517	0.0702	1.053094515770974	1.0123297271032512	0.1076	1.6301207790878058	1.2555640143649769	-0.01275	1.6031768927698113	1.0375116340679817	0.0702	1.618421289902833	0.8646581654720452	0.1076
185	6.184086629001883	1.3487369228304236	0.8934590101580496	0.0301	1.2633683735798447	0.9268629105474642	0.0301	1.1754200421500245	0.6520863570881557	0.129	0.9931129735207832	0.32112402210054347	0.023	1.0357695328781058	0.202776475334806	0.2179	0.998721504651257	0.21043561823862347	0.1804	0.9653542075383759	0.2665189439330901	-0.0119	1.4354395805109903	0.8663570524923453	0.0301	1.3805143311799433	0.5510469168965851	0.129	1.2359376557965631	0.26186131741976443	0.023	1.296585630850507	0.14621109653487777	0.2179	1.3176800383623395	0.15646630638081202	0.1804	1.1897574989688446	0.22118707027611603	-0.0119	1.5107890136443038	1.3213773349314686	0.0008	1.6348535956314516	1.5026138114752186	0.0655	1.5800885122614396	1.3420163801062008	0.1076	1.3582175859299441	1.3289411132668043	-0.01275	1.157484100373583	1.1900558133367685	0.0702	1.0538278527203815	1.0138868074596945	0.1076	1.6364673027838677	1.253686819367422	-0.01275	1.606603500675651	1.0361223062100653	0.0702	1.619619518331696	0.8628548676325014	0.1076
186	6.2175141242937855	1.35179755568998	0.8908205359306861	0.0301	1.265500582627655	0.922403728341425	0.0301	1.1765378975865284	0.6468562127713017	0.129	0.9985453292475898	0.3206855569585066	0.023	1.0291496235158017	0.2084266635787309	0.2179	0.9907022677261246	0.214690929004856	0.1804	0.9711514192344732	0.2630468639864764	-0.0119	1.4408026246203096	0.8641859940104771	0.0301	1.376253886508287	0.5473513887014637	0.129	1.246031936046162	0.2476125231653947	0.023	1.2969100872870918	0.13377589872301557	0.2179	1.3225840677149305	0.14217027768089605	0.1804	1.20050799215573	0.20506401860953274	-0.0119	1.515408590375117	1.3186968960383185	0.0008	1.6414870316395131	1.5008219857946397	0.0655	1.5809332869696935	1.3394518654732968	0.1076	1.3637036991721003	1.3275820953546615	-0.01275	1.1611714124042356	1.1882922128240943	0.0702	1.054381171130242	1.015389321883037	0.1076	1.644379367096369	1.2518671378530932	-0.01275	1.6109095462550012	1.0348353711186906	0.0702	1.6204628100123024	0.8630686119173588	0.1076
